<?xml version="1.0" standalone="no"?>
<!DOCTYPE svg PUBLIC "-//W3C//DTD SVG 20010904//EN"
 "http://www.w3.org/TR/2001/REC-SVG-20010904/DTD/svg10.dtd">
<svg version="1.0" xmlns="http://www.w3.org/2000/svg"
 width="840.000000pt" height="840.000000pt" viewBox="0 0 840.000000 840.000000"
 preserveAspectRatio="xMidYMid meet">
<metadata>
Created by potrace 1.13, written by Peter Selinger 2001-2015
</metadata>
<g transform="translate(0.000000,840.000000) scale(0.100000,-0.100000)"
fill="#000000" stroke="none">
<path d="M3950 8130 c-25 -4 -85 -13 -135 -19 -178 -24 -458 -93 -570 -140
-11 -5 -63 -26 -115 -47 -205 -82 -450 -222 -635 -362 -184 -140 -411 -362
-560 -547 -76 -94 -255 -354 -255 -370 0 -4 -8 -19 -19 -33 -54 -78 -193 -372
-246 -522 -49 -141 -54 -155 -88 -280 -91 -335 -122 -569 -122 -930 0 -289 27
-556 76 -760 41 -174 68 -266 111 -390 17 -47 32 -94 35 -105 3 -11 10 -26 15
-32 7 -9 -4 -28 -35 -65 -82 -96 -143 -227 -175 -373 -6 -27 -16 -71 -22 -97
-13 -60 -13 -146 0 -206 6 -26 16 -69 22 -97 66 -303 225 -486 482 -555 86
-23 288 -28 375 -9 88 19 86 7 -10 -56 -387 -254 -408 -624 -57 -1023 98 -110
317 -247 486 -301 313 -101 604 0 816 282 41 55 42 50 21 -60 -19 -98 -19
-163 0 -251 54 -258 258 -423 602 -487 48 -9 107 -20 131 -26 55 -12 189 -12
244 0 24 6 83 17 131 26 344 64 548 229 602 487 19 88 19 153 0 251 -21 110
-20 115 21 60 288 -383 696 -423 1151 -111 161 110 312 310 372 493 84 251
-16 489 -278 660 -96 63 -98 75 -10 56 87 -19 289 -14 375 9 257 69 416 252
482 555 6 28 16 71 22 97 5 26 10 72 10 103 0 31 -5 77 -10 103 -6 26 -16 70
-22 97 -32 146 -93 277 -175 373 -31 37 -42 56 -35 65 5 6 12 21 15 32 3 11
18 58 35 105 43 124 70 216 111 390 49 204 76 471 76 760 0 361 -31 595 -122
930 -34 125 -39 139 -88 280 -53 150 -192 444 -246 522 -11 14 -19 29 -19 33
0 16 -179 276 -255 370 -149 185 -376 407 -560 547 -185 140 -430 280 -635
362 -52 21 -104 42 -115 47 -27 11 -167 55 -240 74 -122 33 -196 47 -467 85
-78 12 -432 11 -498 0z m-1031 -2491 c127 -39 215 -103 280 -200 114 -170 95
-415 -42 -559 -103 -108 -197 -150 -342 -150 -143 0 -240 42 -342 150 -132
138 -153 393 -46 555 59 89 164 166 278 203 42 14 171 14 214 1z m1413 -8 c72
-19 165 -83 228 -157 139 -164 132 -423 -14 -591 -151 -171 -416 -205 -603
-77 -129 89 -203 227 -203 379 1 134 46 239 145 338 38 37 138 97 174 103 20
4 43 11 51 15 20 12 162 5 222 -10z m1357 8 c219 -67 351 -235 351 -447 0
-216 -113 -374 -322 -447 -57 -20 -209 -20 -268 0 -200 67 -324 238 -323 445
0 95 24 174 74 249 64 96 149 157 274 199 41 14 171 14 214 1z"/>
</g>
</svg>
