<?xml version="1.0" standalone="no"?>
<!DOCTYPE svg PUBLIC "-//W3C//DTD SVG 20010904//EN"
 "http://www.w3.org/TR/2001/REC-SVG-20010904/DTD/svg10.dtd">
<svg version="1.0" xmlns="http://www.w3.org/2000/svg"
 width="840.000000pt" height="840.000000pt" viewBox="0 0 840.000000 840.000000"
 preserveAspectRatio="xMidYMid meet">
<metadata>
Created by potrace 1.13, written by Peter Selinger 2001-2015
</metadata>
<g transform="translate(0.000000,840.000000) scale(0.100000,-0.100000)"
fill="#000000" stroke="none">
<path d="M4176 7739 c-44 -159 -157 -395 -298 -627 -58 -95 -200 -314 -215
-331 -8 -10 -389 267 -553 404 -177 147 -390 366 -460 473 -14 21 -15 6 -16
-165 -1 -397 -87 -785 -419 -1891 -277 -926 -410 -1460 -472 -1902 -22 -157
-25 -617 -5 -755 55 -380 175 -697 377 -1001 107 -160 184 -251 336 -399 466
-453 1075 -696 1744 -696 558 0 1073 168 1510 494 122 91 323 281 422 399 160
193 330 492 408 718 100 291 136 511 135 838 0 355 -49 679 -185 1222 -70 281
-115 441 -300 1060 -267 894 -337 1163 -395 1521 -26 166 -42 385 -35 489 5
83 5 85 -12 60 -92 -128 -270 -311 -443 -455 -92 -76 -365 -282 -501 -378
l-67 -47 -90 138 c-225 344 -330 543 -412 786 l-37 108 -17 -63z m523 -3201
l499 -3 -496 -972 -497 -973 -3 640 -2 640 -499 2 -500 3 497 973 497 973 3
-641 2 -640 499 -2z"/>
</g>
</svg>
